PathFileType	4	(X/Y/Z)	C:/Users/beibeiliu/ov580/test_trc/User1\sequence.6_training_dense_right.trc
DataRate	CameraRate	NumFrames	NumMarkers	Units	OrigDataRate	OrigDataStartFrame	OrigNumFrames
120	120	10	19	mm	120	35	277
Frame#	Time	ThumbCMC			ThumbMCP			ThumbIP			ThumbTip			IndexMCP			IndexPIP			IndexTip			MiddleMCP			MiddlePIP			MiddleTip			RingMCP			RingPIP			RingTip			PinkyMCP			PinkyPIP			PinkyTip			BackHand1			BackHand2			BackHand3	
		X0	Y0	Z0	X1	Y1	Z1	X2	Y2	Z2	X3	Y3	Z3	X4	Y4	Z4	X5	Y5	Z5	X6	Y6	Z6	X7	Y7	Z7	X8	Y8	Z8	X9	Y9	Z9	X10	Y10	Z10	X11	Y11	Z11	X12	Y12	Z12	X13	Y13	Z13	X14	Y14	Z14	X15	Y15	Z15	X16	Y16	Z16	X17	Y17	Z17	X18	Y18	Z18	
34	0.283333	124.897	80.3038	26.3317	111.77	58.4916	-3.83591	113.554	50.6864	-26.9171	115.923	38.5949	-55.9296	137.034	109.91	-49.657	131.489	116.057	-76.5764	136.621	118.018	-97.7956	150.048	80.9632	-60.3969	141.806	48.9004	-62.8927	140.28	37.9474	-22.8681	169.587	60.8711	-47.8965	157.864	32.4631	-39.5334	148.85	30.8125	-3.94619	189.215	52.8692	-33.8811	169.03	34.8611	-22.7046	157.065	53.7056	1.55755	188.383	96.9791	3.31652	188.141	97.4641	38.4058	153.452	108.84	19.5576	
35	0.291667	125.153	79.8351	30.862	112.39	59.128	-4.05229	110.245	49.9381	-28.5475	119.612	40.3036	-51.6914	130.392	108.027	-53.2313	132.349	104.821	-75.6972	130.115	104.844	-100.834	150.945	78.1148	-61.1272	141.788	44.9053	-60.1502	143.414	35.507	-22.0001	172.51	59.668	-46.5091	153.876	30.5511	-35.8184	152.426	30.1464	-0.706704	187.247	51.3291	-34.8985	170.091	35.3854	-24.2278	160.185	51.5656	3.94322	184.782	100.638	2.55529	188.586	98.9764	40.3817	155.905	109.439	20.6703	
36	0.3	124.528	80.7963	27.9555	113.764	58.2111	0.869968	111.468	50.9133	-31.4692	118.227	39.1068	-52.2244	132.281	100.709	-54.0239	126.097	95.035	-77.4736	128.964	84.9797	-101.376	147.321	76.8198	-59.171	141.574	44.1438	-58.5064	138.48	35.1658	-18.0132	170.11	59.4048	-45.9732	155.117	29.1337	-32.8783	151.492	32.1426	-0.26598	190.533	52.5802	-32.142	168.919	31.5803	-17.5664	158.891	47.2089	4.60508	183.999	98.1409	2.16597	186.551	101.131	34.875	154.403	108.913	23.2811	
37	0.308333	125.653	77.9318	32.33	111.615	56.5352	1.66132	110.339	49.3383	-31.044	118.276	38.342	-52.5085	129.645	94.5923	-52.2208	127.165	83.9623	-76.4429	121.016	69.0769	-99.5696	149.241	75.8472	-59.1834	143.015	41.6315	-57.7357	142.012	34.2942	-18.2258	170.152	58.9065	-46.7136	154.796	28.1465	-32.333	150.197	31.0137	-1.92822	189.336	49.9457	-32.6335	169.786	30.8862	-17.7694	160.374	48.5828	7.6567	185.231	99.1452	3.04137	190.04	100.752	34.524	153.117	108.655	18.1548	
38	0.316667	124.404	78.3048	33.3086	112.265	57.0152	2.30541	110.509	49.9312	-29.0467	115.545	37.6327	-49.0819	127.658	88.7803	-55.2848	122.18	74.4288	-76.4145	120.691	52.0945	-94.329	151.714	75.396	-58.177	139.31	42.6836	-58.7396	137.007	32.7998	-18.4706	166.32	56.0334	-47.0586	156.991	28.0094	-35.9427	149.645	30.188	-2.04497	188.604	52.3651	-32.6505	172.938	29.6861	-21.9497	160.702	43.5455	5.28299	183.785	97.0911	2.85701	186.413	100.667	34.6985	153.871	109.56	19.3816	
39	0.325	120.574	77.7687	33.2168	113.199	57.7966	-1.27966	113.744	50.4878	-27.9534	115.702	37.4915	-47.8461	125.156	88.356	-49.2233	119.823	70.9442	-71.7346	117.463	45.9729	-88.2133	146.429	75.0512	-59.3263	139.288	39.6188	-57.2659	139.485	32.1779	-18.5083	168.551	54.0753	-47.5062	154.497	27.6034	-34.874	150.081	30.8255	-0.779486	185.116	52.7868	-33.9758	170.39	29.3063	-20.9281	161.806	43.8441	7.80848	186.12	96.6662	1.58335	189.473	98.4471	37.6539	151.887	109.612	19.6973	
40	0.333333	121.494	78.8572	30.4291	113.633	56.2817	1.53531	111.149	47.8918	-26.0521	116.16	38.2474	-49.0166	124.506	87.7287	-50.731	122.627	68.0199	-71.3211	119.147	41.5222	-88.5768	150.924	74.8423	-58.3015	139.237	42.7125	-59.3495	138.795	30.6772	-19.7126	171.453	57.0867	-45.5812	155.443	27.5849	-35.7059	153.026	26.9239	-2.80301	189.522	49.8	-33.4951	171.748	27.7218	-20.4744	162.818	40.4518	8.13898	183.54	96.8527	1.2601	189.083	100.254	36.7536	154.763	106.421	20.427	
41	0.341667	123.784	78.0618	31.2871	111.734	54.9765	3.71867	113.063	48.773	-26.7087	116.121	36.61	-51.4119	123.034	89.326	-51.285	120.693	71.1718	-73.4729	117.045	50.3549	-89.7009	147.323	73.1787	-59.9069	141.523	39.6642	-57.7775	141.999	31.2218	-18.1312	169.497	54.1573	-47.2853	155.211	28.1314	-37.9204	153.263	28.205	-0.498555	190.651	51.3026	-32.7552	168.603	30.358	-20.1479	162.512	39.779	6.77847	185.647	97.6133	3.05091	188.272	97.5235	34.0917	151.482	107.269	21.685	
42	0.35	125.313	78.9278	30.4977	113.644	56.022	3.88294	111.278	48.5632	-27.3891	115.329	37.054	-52.373	127.163	91.2626	-54.2324	123.425	79.5317	-74.2317	119.499	61.7835	-95.3251	150.429	72.3158	-59.9062	142.396	41.1856	-59.2795	140.372	30.3968	-19.3999	167.019	57.1977	-45.9862	154.86	26.8946	-35.8629	149.003	26.3295	-4.81148	191.03	49.8589	-32.8255	171.3	27.9783	-23.0772	160.4	42.4436	7.15595	185.743	97.2368	3.17292	190.158	97.6526	34.1195	152.454	107.173	18.5111	
43	0.358333	122.54	78.9727	31.5056	115.097	57.1709	3.17125	112.271	49.1908	-24.5794	116.061	38.5556	-47.4433	129.84	98.1721	-48.9171	120.668	90.9828	-78.3743	119.312	80.5883	-99.4311	149.981	76.6226	-55.2522	137.158	42.4554	-58.0016	137.46	31.071	-21.4477	168.79	59.0022	-46.4055	153.153	27.4091	-34.4124	152.744	26.0654	-3.3966	190.23	48.8153	-33.8929	168.346	31.6998	-22.7492	160.123	45.27	5.43687	185.13	97.3484	3.85733	189.628	99.2238	35.0982	156.355	106.355	22.596	
